# xmcd
#
# Track frame offsets:
#	150
#	17925
#	33986
#	54461
#	75408
#	111734
#	129903
#	154022
#	175918
#	194893
#	216550
#	239598
#
# Disc length: 3548 seconds
#
# Revision: 0
# Processed by: cddbd v1.4PL0 Copyright (c) Steve Scherf et al.
# Submitted via: dBpowerAMP V4.0
#
DISCID=ae0dda0c
DTITLE=Forgiven Much - Forgiven Much - Live
DYEAR=1900
DGENRE=
TTITLE0=Everything
TTITLE1=Jesus Lead On
TTITLE2=You're Worthy of My Praise
TTITLE3=God of Wonders
TTITLE4=Medley: Forever/Shout to the Lord
TTITLE5=Scottimony
TTITLE6=On the Inside
TTITLE7=Could It Be?
TTITLE8=Grace Flows Down
TTITLE9=Jesus Name Above All Names
TTITLE10=Nothing but the Blood
TTITLE11=We Will Dance
EXTD=
EXTT0=
EXTT1=
EXTT2=
EXTT3=
EXTT4=
EXTT5=
EXTT6=
EXTT7=
EXTT8=
EXTT9=
EXTT10=
EXTT11=
PLAYORDER=
